<?xml version="1.0" encoding="UTF-8" standalone="no"?>
<svg
   xmlns:dc="http://purl.org/dc/elements/1.1/"
   xmlns:cc="http://creativecommons.org/ns#"
   xmlns:rdf="http://www.w3.org/1999/02/22-rdf-syntax-ns#"
   xmlns:svg="http://www.w3.org/2000/svg"
   xmlns="http://www.w3.org/2000/svg"
   xmlns:sodipodi="http://sodipodi.sourceforge.net/DTD/sodipodi-0.dtd"
   xmlns:inkscape="http://www.inkscape.org/namespaces/inkscape"
   version="1.1"
   id="Layer_1"
   x="0px"
   y="0px"
   viewBox="0 0 431.648 431.648"
   style="enable-background:new 0 0 431.648 431.648;"
   xml:space="preserve"
   sodipodi:docname="chat-svgrepo-com.svg"
   inkscape:version="1.0.2-2 (e86c870879, 2021-01-15)"><metadata
   id="metadata63"><rdf:RDF><cc:Work
       rdf:about=""><dc:format>image/svg+xml</dc:format><dc:type
         rdf:resource="http://purl.org/dc/dcmitype/StillImage" /></cc:Work></rdf:RDF></metadata><defs
   id="defs61">















	

		
	
			
			
			
			
			
			
			
			
			
			
		</defs><sodipodi:namedview
   pagecolor="#ffffff"
   bordercolor="#666666"
   borderopacity="1"
   objecttolerance="10"
   gridtolerance="10"
   guidetolerance="10"
   inkscape:pageopacity="0"
   inkscape:pageshadow="2"
   inkscape:window-width="2048"
   inkscape:window-height="1089"
   id="namedview59"
   showgrid="false"
   inkscape:zoom="2.1359997"
   inkscape:cx="215.82401"
   inkscape:cy="215.82401"
   inkscape:window-x="-8"
   inkscape:window-y="-8"
   inkscape:window-maximized="1"
   inkscape:current-layer="Layer_1"
   inkscape:document-rotation="0" />
<path
   d="m 163.823,26.367 c -36.172,0 -65.601,29.429 -65.601,65.602 0,36.172 29.429,65.601 65.601,65.601 36.173,0 65.602,-29.429 65.602,-65.601 0,-36.173 -29.429,-65.602 -65.602,-65.602 z m 0,116.203 c -27.901,0 -50.601,-22.7 -50.601,-50.601 0,-27.902 22.7,-50.602 50.601,-50.602 27.902,0 50.602,22.7 50.602,50.602 0,27.901 -22.7,50.601 -50.602,50.601 z"
   id="path2"
   style="fill:#bbbbbb;fill-opacity:1" /><path
   d="m 143.396,83.393 c 1.4,-1.4 2.2,-3.33 2.2,-5.3 0,-1.98 -0.8,-3.91 -2.2,-5.31 -1.39,-1.39 -3.33,-2.19 -5.3,-2.19 -1.97,0 -3.91,0.8 -5.3,2.19 -1.4,1.4 -2.2,3.33 -2.2,5.31 0,1.97 0.8,3.9 2.2,5.3 1.39,1.4 3.33,2.2 5.3,2.2 1.97,0 3.91,-0.801 5.3,-2.2 z"
   id="path4"
   style="fill:#bbbbbb;fill-opacity:1" /><path
   d="m 189.546,70.593 c -1.97,0 -3.9,0.8 -5.3,2.19 -1.4,1.4 -2.2,3.33 -2.2,5.31 0,1.97 0.8,3.9 2.2,5.3 1.4,1.4 3.33,2.2 5.3,2.2 1.98,0 3.91,-0.81 5.31,-2.2 1.39,-1.4 2.19,-3.33 2.19,-5.3 0,-1.98 -0.8,-3.91 -2.19,-5.31 -1.399,-1.39 -3.33,-2.19 -5.31,-2.19 z"
   id="path6"
   style="fill:#bbbbbb;fill-opacity:1" /><path
   d="m 176.828,100.62 c -7.171,7.17 -18.837,7.17 -26.008,0 -2.929,-2.929 -7.678,-2.929 -10.606,0 -2.929,2.929 -2.929,7.678 0,10.606 6.509,6.51 15.06,9.764 23.61,9.764 8.551,0 17.102,-3.254 23.611,-9.764 2.929,-2.929 2.929,-7.678 0,-10.606 -2.93,-2.929 -7.679,-2.929 -10.607,0 z"
   id="path8"
   style="fill:#bbbbbb;fill-opacity:1" /><path
   d="M 306.324,146.568 V 37.309 C 306.324,16.737 289.587,0 269.015,0 H 58.632 C 38.061,0 21.324,16.737 21.324,37.309 v 109.259 c 0,18.385 13.366,33.706 30.892,36.756 l -17.903,31.331 c -1.661,2.906 -1.195,6.561 1.142,8.957 1.448,1.485 3.397,2.265 5.372,2.264 1.211,0 2.433,-0.293 3.553,-0.896 l 76.335,-41.104 h 148.301 c 20.571,0 37.308,-16.736 37.308,-37.308 z m -187.5,22.309 v -0.001 c -1.241,0 -2.463,0.308 -3.556,0.896 l -54.936,29.581 11.003,-19.256 c 1.327,-2.321 1.317,-5.173 -0.025,-7.486 -1.342,-2.312 -3.813,-3.735 -6.487,-3.735 h -6.191 c -12.301,0 -22.309,-10.007 -22.309,-22.309 V 37.309 C 36.324,25.008 46.332,15 58.632,15 h 210.383 c 12.301,0 22.309,10.008 22.309,22.309 v 109.259 c 0,12.301 -10.008,22.309 -22.309,22.309 z"
   id="path10"
   style="fill:#bbbbbb;fill-opacity:1" /><path
   d="M 373.015,205.771 H 162.632 c -20.572,0 -37.309,16.736 -37.309,37.309 v 109.259 c 0,20.572 16.737,37.309 37.309,37.309 h 148.301 l 76.335,41.104 c 1.121,0.604 2.341,0.897 3.553,0.896 1.975,0 3.924,-0.779 5.372,-2.264 2.337,-2.396 2.803,-6.051 1.142,-8.957 l -17.903,-31.331 c 17.525,-3.05 30.892,-18.372 30.892,-36.756 V 243.08 c 0,-20.573 -16.737,-37.309 -37.309,-37.309 z m 22.309,146.568 c 0,12.301 -10.008,22.309 -22.309,22.309 h -6.191 c -2.673,0 -5.145,1.423 -6.487,3.735 -1.342,2.313 -1.352,5.165 -0.025,7.486 l 11.003,19.256 -54.936,-29.581 c -1.093,-0.588 -2.314,-0.896 -3.556,-0.896 H 162.632 c -12.301,0 -22.309,-10.008 -22.309,-22.309 V 243.08 c 0,-12.301 10.008,-22.309 22.309,-22.309 h 210.383 c 12.301,0 22.309,10.007 22.309,22.309 z"
   id="path12"
   style="fill:#bbbbbb;fill-opacity:1" /><path
   d="m 267.823,234.305 c -36.172,0 -65.601,29.429 -65.601,65.601 0,36.173 29.429,65.602 65.601,65.602 36.173,0 65.602,-29.429 65.602,-65.602 0,-36.173 -29.429,-65.601 -65.602,-65.601 z m 0,116.202 c -27.901,0 -50.601,-22.7 -50.601,-50.602 0,-27.901 22.7,-50.601 50.601,-50.601 27.902,0 50.602,22.7 50.602,50.601 0,27.903 -22.7,50.602 -50.602,50.602 z"
   id="path14"
   style="fill:#bbbbbb;fill-opacity:1" /><path
   d="m 242.097,293.522 c 1.98,0 3.91,-0.8 5.3,-2.19 1.4,-1.4 2.2,-3.33 2.2,-5.31 0,-1.97 -0.8,-3.9 -2.2,-5.3 -1.39,-1.4 -3.32,-2.2 -5.3,-2.2 -1.98,0 -3.91,0.8 -5.3,2.2 -1.4,1.4 -2.2,3.33 -2.2,5.3 0,1.98 0.8,3.91 2.2,5.31 1.39,1.391 3.32,2.19 5.3,2.19 z"
   id="path16"
   style="fill:#bbbbbb;fill-opacity:1" /><path
   d="m 293.546,278.522 c -1.97,0 -3.9,0.8 -5.3,2.2 -1.4,1.39 -2.2,3.33 -2.2,5.3 0,1.98 0.8,3.91 2.2,5.31 1.4,1.39 3.33,2.19 5.3,2.19 1.98,0 3.91,-0.8 5.31,-2.19 1.39,-1.4 2.19,-3.33 2.19,-5.31 0,-1.97 -0.8,-3.91 -2.19,-5.3 -1.399,-1.399 -3.33,-2.2 -5.31,-2.2 z"
   id="path18"
   style="fill:#bbbbbb;fill-opacity:1" /><path
   d="m 292.573,300.725 h -49.5 c -4.142,0 -7.5,3.358 -7.5,7.5 0,17.783 14.467,32.25 32.25,32.25 17.783,0 32.25,-14.467 32.25,-32.25 0,-4.142 -3.358,-7.5 -7.5,-7.5 z m -24.75,24.75 c -6.826,0 -12.738,-3.985 -15.533,-9.75 h 31.065 c -2.794,5.765 -8.706,9.75 -15.532,9.75 z"
   id="path20"
   style="fill:#bbbbbb;fill-opacity:1" />















</svg>
