<?xml version="1.0" encoding="UTF-8" standalone="no"?>
<svg
   xmlns:dc="http://purl.org/dc/elements/1.1/"
   xmlns:cc="http://creativecommons.org/ns#"
   xmlns:rdf="http://www.w3.org/1999/02/22-rdf-syntax-ns#"
   xmlns:svg="http://www.w3.org/2000/svg"
   xmlns="http://www.w3.org/2000/svg"
   xmlns:sodipodi="http://sodipodi.sourceforge.net/DTD/sodipodi-0.dtd"
   xmlns:inkscape="http://www.inkscape.org/namespaces/inkscape"
   width="64px"
   height="64px"
   viewBox="0 0 64 64"
   version="1.1"
   id="svg1056"
   sodipodi:docname="queen-svgrepo-com.svg"
   inkscape:version="1.0.2-2 (e86c870879, 2021-01-15)">
  <metadata
     id="metadata1062">
    <rdf:RDF>
      <cc:Work
         rdf:about="">
        <dc:format>image/svg+xml</dc:format>
        <dc:type
           rdf:resource="http://purl.org/dc/dcmitype/StillImage" />
      </cc:Work>
    </rdf:RDF>
  </metadata>
  <defs
     id="defs1060" />
  <sodipodi:namedview
     pagecolor="#ffffff"
     bordercolor="#666666"
     borderopacity="1"
     objecttolerance="10"
     gridtolerance="10"
     guidetolerance="10"
     inkscape:pageopacity="0"
     inkscape:pageshadow="2"
     inkscape:window-width="2048"
     inkscape:window-height="1089"
     id="namedview1058"
     showgrid="false"
     inkscape:zoom="14.40625"
     inkscape:cx="32"
     inkscape:cy="38.247289"
     inkscape:window-x="-8"
     inkscape:window-y="-8"
     inkscape:window-maximized="1"
     inkscape:current-layer="svg1056" />
  <title
     id="title985">queen</title>
  <circle
     cx="58"
     cy="39"
     r="2"
     style="fill:none;stroke:#696969;stroke-width:2px;stroke-linecap:round;stroke-linejoin:round;stroke-opacity:1"
     id="circle987" />
  <line
     x1="7.1290002"
     y1="55"
     x2="4.1810002"
     y2="57.948002"
     style="fill:none;stroke:#696969;stroke-width:2px;stroke-linecap:round;stroke-linejoin:round;stroke-opacity:1"
     id="line989" />
  <line
     x1="4.1810002"
     y1="55"
     x2="7.1290002"
     y2="57.948002"
     style="fill:none;stroke:#696969;stroke-width:2px;stroke-linecap:round;stroke-linejoin:round;stroke-opacity:1"
     id="line991" />
  <circle
     cx="56"
     cy="11"
     r="1"
     id="circle993"
     style="stroke:#696969;stroke-opacity:1" />
  <path
     d="m 48.991,36.486 a 4.027,4.027 0 0 1 2.109,3.542 v 0 a 4.027,4.027 0 0 1 -4.028,4.028 H 46.44"
     style="fill:none;stroke:#696969;stroke-width:2px;stroke-linecap:round;stroke-linejoin:round;stroke-opacity:1"
     id="path995" />
  <line
     x1="37"
     y1="55.348"
     x2="37"
     y2="63"
     style="fill:none;stroke:#696969;stroke-width:2px;stroke-linecap:round;stroke-linejoin:round;stroke-opacity:1"
     id="line997" />
  <line
     x1="25"
     y1="63"
     x2="25"
     y2="55.348"
     style="fill:none;stroke:#696969;stroke-width:2px;stroke-linecap:round;stroke-linejoin:round;stroke-opacity:1"
     id="line999" />
  <path
     d="M 15.682,44.056 H 15.028 A 4.027,4.027 0 0 1 11,40.028 v 0 a 4.027,4.027 0 0 1 2.108,-3.542"
     style="fill:none;stroke:#696969;stroke-width:2px;stroke-linecap:round;stroke-linejoin:round;stroke-opacity:1"
     id="path1001" />
  <path
     d="M 46.22,38.268 C 49.8,36.116 52,33.205 52,30 a 7.717,7.717 0 0 0 -1.5,-4.436 4.995,4.995 0 0 0 -3.223,-8.556"
     style="fill:none;stroke:#696969;stroke-width:2px;stroke-linecap:round;stroke-linejoin:round;stroke-opacity:1"
     id="path1003" />
  <path
     d="M 14.672,17.011 A 4.995,4.995 0 0 0 11.5,25.564 7.717,7.717 0 0 0 10,30 c 0,3.227 2.23,6.157 5.857,8.314"
     style="fill:none;stroke:#696969;stroke-width:2px;stroke-linecap:round;stroke-linejoin:round;stroke-opacity:1"
     id="path1005" />
  <path
     d="m 44,32 c -2.761,0 -5,-1.343 -5,-3 0,-0.021 0.009,-0.039 0.01,-0.06 C 34.441,28.663 31,27.452 31,26 c 0,1.452 -3.441,2.663 -8.01,2.94 0,0.021 0.01,0.039 0.01,0.06 0,1.657 -2.239,3 -5,3 A 7.9,7.9 0 0 1 16,31.747 V 41.9 A 14.1,14.1 0 0 0 30.1,56 h 1.8 A 14.1,14.1 0 0 0 46,41.9 V 31.747 A 7.9,7.9 0 0 1 44,32 Z"
     style="fill:none;stroke:#696969;stroke-width:2px;stroke-linecap:round;stroke-linejoin:round;stroke-opacity:1"
     id="path1007" />
  <path
     d="m 24.933,38.213 a 2.814,2.814 0 0 1 -4.342,0.032"
     style="fill:none;stroke:#696969;stroke-width:2px;stroke-linecap:round;stroke-linejoin:round;stroke-opacity:1"
     id="path1009" />
  <path
     d="m 40.933,38.213 a 2.814,2.814 0 0 1 -4.342,0.032"
     style="fill:none;stroke:#696969;stroke-width:2px;stroke-linecap:round;stroke-linejoin:round;stroke-opacity:1"
     id="path1011" />
  <path
     d="m 32.933,45.213 a 2.814,2.814 0 0 1 -4.342,0.032"
     style="fill:none;stroke:#696969;stroke-width:2px;stroke-linecap:round;stroke-linejoin:round;stroke-opacity:1"
     id="path1013" />
  <path
     d="m 16,49 c 0,-2.209 -0.895,-5 -2,-5 -1.105,0 -2,2.791 -2,5 0,2.209 0.895,3 2,3 1.105,0 2,-0.791 2,-3 z"
     style="fill:none;stroke:#696969;stroke-width:2px;stroke-linecap:round;stroke-linejoin:round;stroke-opacity:1"
     id="path1015" />
  <path
     d="m 50,49 c 0,-2.209 -0.9,-5 -2,-5 -1.1,0 -2,2.791 -2,5 0,2.209 0.9,3 2,3 1.1,0 2,-0.791 2,-3 z"
     style="fill:none;stroke:#696969;stroke-width:2px;stroke-linecap:round;stroke-linejoin:round;stroke-opacity:1"
     id="path1017" />
  <line
     x1="37.401001"
     y1="11"
     x2="42.176998"
     y2="11"
     style="fill:#fc8c29;stroke:#696969;stroke-width:2px;stroke-linecap:round;stroke-linejoin:round;stroke-opacity:1"
     id="line1019" />
  <line
     x1="34.166"
     y1="11"
     x2="37.401001"
     y2="11"
     style="fill:#fc8c29;stroke:#696969;stroke-width:2px;stroke-linecap:round;stroke-linejoin:round;stroke-opacity:1"
     id="line1021" />
  <line
     x1="27.891001"
     y1="11"
     x2="34.166"
     y2="11"
     style="fill:#fc8c29;stroke:#696969;stroke-width:2px;stroke-linecap:round;stroke-linejoin:round;stroke-opacity:1"
     id="line1023" />
  <line
     x1="24.591999"
     y1="11"
     x2="27.891001"
     y2="11"
     style="fill:#fc8c29;stroke:#696969;stroke-width:2px;stroke-linecap:round;stroke-linejoin:round;stroke-opacity:1"
     id="line1025" />
  <line
     x1="19.795"
     y1="11"
     x2="24.591999"
     y2="11"
     style="fill:#fc8c29;stroke:#696969;stroke-width:2px;stroke-linecap:round;stroke-linejoin:round;stroke-opacity:1"
     id="line1027" />
  <line
     x1="16"
     y1="14.711"
     x2="16"
     y2="6"
     style="fill:none;stroke:#696969;stroke-width:2px;stroke-linecap:round;stroke-linejoin:round;stroke-opacity:1"
     id="line1029" />
  <line
     x1="18"
     y1="6"
     x2="20.903999"
     y2="14.711"
     style="fill:none;stroke:#696969;stroke-width:2px;stroke-linecap:round;stroke-linejoin:round;stroke-opacity:1"
     id="line1031" />
  <line
     x1="24.063999"
     y1="14.711"
     x2="25.886999"
     y2="6.5110002"
     style="fill:none;stroke:#696969;stroke-width:2px;stroke-linecap:round;stroke-linejoin:round;stroke-opacity:1"
     id="line1033" />
  <line
     x1="26.177999"
     y1="6.5349998"
     x2="28.903999"
     y2="14.711"
     style="fill:none;stroke:#696969;stroke-width:2px;stroke-linecap:round;stroke-linejoin:round;stroke-opacity:1"
     id="line1035" />
  <line
     x1="37.936001"
     y1="14.711"
     x2="36.091"
     y2="6.4120002"
     style="fill:none;stroke:#696969;stroke-width:2px;stroke-linecap:round;stroke-linejoin:round;stroke-opacity:1"
     id="line1037" />
  <line
     x1="35.830002"
     y1="6.5110002"
     x2="33.096001"
     y2="14.711"
     style="fill:none;stroke:#696969;stroke-width:2px;stroke-linecap:round;stroke-linejoin:round;stroke-opacity:1"
     id="line1039" />
  <line
     x1="46"
     y1="14.578"
     x2="46"
     y2="6"
     style="fill:none;stroke:#696969;stroke-width:2px;stroke-linecap:round;stroke-linejoin:round;stroke-opacity:1"
     id="line1041" />
  <line
     x1="44"
     y1="6"
     x2="41.140999"
     y2="14.578"
     style="fill:none;stroke:#696969;stroke-width:2px;stroke-linecap:round;stroke-linejoin:round;stroke-opacity:1"
     id="line1043" />
  <circle
     cx="17"
     cy="4"
     r="2"
     style="fill:none;stroke:#696969;stroke-width:2px;stroke-linecap:round;stroke-linejoin:round;stroke-opacity:1"
     id="circle1045" />
  <circle
     cx="45"
     cy="4"
     r="2"
     style="fill:none;stroke:#696969;stroke-width:2px;stroke-linecap:round;stroke-linejoin:round;stroke-opacity:1"
     id="circle1047" />
  <circle
     cx="36"
     cy="4"
     r="2"
     style="fill:none;stroke:#696969;stroke-width:2px;stroke-linecap:round;stroke-linejoin:round;stroke-opacity:1"
     id="circle1049" />
  <circle
     cx="26"
     cy="4"
     r="2"
     style="fill:none;stroke:#696969;stroke-width:2px;stroke-linecap:round;stroke-linejoin:round;stroke-opacity:1"
     id="circle1051" />
  <path
     d="m 31,22 c 7.386,0 12.655,0.833 15,1.994 L 47,15 H 15 l 1,8.994 C 18.345,22.833 23.614,22 31,22 Z"
     style="fill:none;stroke:#696969;stroke-width:2px;stroke-linecap:round;stroke-linejoin:round;stroke-opacity:1"
     id="path1053" />
</svg>
